<svg width="30" height="30" viewBox="0 0 30 30" fill="none" xmlns="http://www.w3.org/2000/svg">
<path d="M3.51257 2.37881C3.439 2.29986 3.35029 2.23653 3.25171 2.19261C3.15314 2.14869 3.04674 2.12508 2.93884 2.12317C2.83095 2.12127 2.72377 2.14112 2.62371 2.18153C2.52365 2.22195 2.43276 2.2821 2.35645 2.35841C2.28015 2.43471 2.21999 2.52561 2.17958 2.62567C2.13916 2.72572 2.11932 2.8329 2.12122 2.94079C2.12312 3.04869 2.14674 3.1551 2.19066 3.25367C2.23458 3.35224 2.2979 3.44095 2.37685 3.51452L8.50971 9.64845H5.62328C5.166 9.64845 4.7132 9.73852 4.29072 9.91351C3.86825 10.0885 3.48438 10.345 3.16103 10.6683C2.83769 10.9917 2.58119 11.3756 2.4062 11.798C2.23121 12.2205 2.14114 12.6733 2.14114 13.1306V16.872C2.14114 17.7955 2.50801 18.6812 3.16103 19.3343C3.81406 19.9873 4.69976 20.3542 5.62328 20.3542H8.85042C9.32614 20.3542 9.78471 20.5363 10.1319 20.8609L15.4215 25.8174C16.2776 26.6199 17.6769 26.0124 17.6769 24.8402V18.8156L26.484 27.6227C26.6356 27.769 26.8386 27.8499 27.0493 27.848C27.26 27.8461 27.4615 27.7615 27.6105 27.6124C27.7594 27.4634 27.8438 27.2618 27.8455 27.0511C27.8473 26.8404 27.7662 26.6374 27.6197 26.4859L3.51257 2.37881ZM16.0697 17.2074V24.222L11.2311 19.6888C10.586 19.0839 9.7348 18.7472 8.85042 18.747H5.62328C5.126 18.747 4.64909 18.5495 4.29746 18.1978C3.94583 17.8462 3.74828 17.3693 3.74828 16.872V13.1306C3.74828 12.0956 4.58828 11.2556 5.62328 11.2556H8.84935C9.22435 11.2556 9.59185 11.1956 9.94221 11.0799L16.0697 17.2074ZM11.379 7.97166L12.5158 9.10845L16.0697 5.77631V12.6624L17.6769 14.2695V5.15809C17.6769 3.98595 16.2765 3.37952 15.4215 4.18095L11.379 7.97166ZM21.6111 18.2038L22.8294 19.422C23.4937 18.0427 23.8383 16.5312 23.8376 15.0002C23.8409 12.7989 23.1274 10.6562 21.8051 8.89631C21.7418 8.81188 21.6624 8.74076 21.5716 8.687C21.4808 8.63323 21.3803 8.59788 21.2759 8.58295C21.1714 8.56803 21.065 8.57383 20.9628 8.60002C20.8606 8.62621 20.7645 8.67228 20.6801 8.73559C20.5956 8.79891 20.5245 8.87823 20.4708 8.96903C20.417 9.05984 20.3816 9.16034 20.3667 9.26481C20.3518 9.36927 20.3576 9.47565 20.3838 9.57788C20.41 9.6801 20.456 9.77617 20.5194 9.86059C21.6331 11.3423 22.2338 13.1466 22.2304 15.0002C22.231 16.0979 22.0208 17.1855 21.6111 18.2038ZM24.6144 21.207L25.7876 22.3813C27.1434 20.1579 27.8589 17.6033 27.8554 14.9992C27.8602 11.5488 26.6035 8.21568 24.3219 5.62738C24.1792 5.47467 23.9828 5.38351 23.7741 5.37323C23.5654 5.36296 23.3609 5.43438 23.204 5.57235C23.047 5.71032 22.95 5.90398 22.9335 6.11227C22.917 6.32056 22.9822 6.5271 23.1154 6.68809C25.1393 8.98353 26.2536 11.94 26.2483 15.0002C26.2515 17.1759 25.6884 19.3149 24.6144 21.207Z" fill="black"/>
</svg>
