<svg width="30" height="30" viewBox="0 0 30 30" fill="none" xmlns="http://www.w3.org/2000/svg">
<path d="M16.875 5.25329C16.875 4.20892 15.6131 3.68673 14.8744 4.42454L10.4737 8.8261C10.2995 9.00017 10.0926 9.1382 9.86503 9.2323C9.63741 9.3264 9.39349 9.37474 9.14719 9.37454H5.625C4.63044 9.37454 3.67661 9.76963 2.97335 10.4729C2.27009 11.1762 1.875 12.13 1.875 13.1245V16.8745C1.875 17.8691 2.27009 18.8229 2.97335 19.5262C3.67661 20.2295 4.63044 20.6245 5.625 20.6245H9.14719C9.39349 20.6243 9.63741 20.6727 9.86503 20.7668C10.0926 20.8609 10.2995 20.9989 10.4737 21.173L14.8744 25.5745C15.6131 26.3124 16.875 25.7902 16.875 24.7458V5.25329ZM11.7994 10.1517L15 6.9511V23.0489L11.7994 19.8483C11.4511 19.4999 11.0377 19.2236 10.5826 19.0351C10.1275 18.8465 9.63976 18.7495 9.14719 18.7495H5.625C5.12772 18.7495 4.65081 18.552 4.29917 18.2004C3.94754 17.8487 3.75 17.3718 3.75 16.8745V13.1245C3.75 12.6273 3.94754 12.1503 4.29917 11.7987C4.65081 11.4471 5.12772 11.2495 5.625 11.2495H9.14719C9.6397 11.2497 10.1274 11.1528 10.5825 10.9644C11.0375 10.7761 11.451 10.4999 11.7994 10.1517ZM21.3975 8.84392C21.3283 8.74111 21.2395 8.65303 21.1361 8.58477C21.0326 8.51652 20.9167 8.46944 20.795 8.44626C20.6733 8.42309 20.5482 8.42427 20.4269 8.44974C20.3056 8.47522 20.1906 8.52448 20.0885 8.59468C19.9864 8.66488 19.8992 8.75462 19.832 8.85872C19.7648 8.96282 19.7189 9.07921 19.697 9.20116C19.675 9.32311 19.6775 9.4482 19.7042 9.5692C19.7309 9.6902 19.7813 9.80471 19.8525 9.9061C21.0572 11.6592 21.6216 13.3524 21.6216 14.9995C21.6216 16.6477 21.0572 18.3417 19.8525 20.0939C19.7813 20.1953 19.7309 20.3098 19.7042 20.4308C19.6775 20.5518 19.675 20.6769 19.697 20.7989C19.7189 20.9208 19.7648 21.0372 19.832 21.1413C19.8992 21.2454 19.9864 21.3351 20.0885 21.4053C20.1906 21.4755 20.3056 21.5248 20.4269 21.5503C20.5482 21.5758 20.6733 21.5769 20.795 21.5538C20.9167 21.5306 21.0326 21.4835 21.1361 21.4152C21.2395 21.347 21.3283 21.2589 21.3975 21.1561C22.7709 19.1592 23.4956 17.1024 23.4956 14.9995C23.4956 12.8977 22.7709 10.8417 21.3975 8.84392ZM24.0844 4.94579C23.9042 4.77423 23.6633 4.68126 23.4146 4.68732C23.1659 4.69339 22.9298 4.798 22.7583 4.97814C22.5867 5.15828 22.4937 5.39919 22.4998 5.64788C22.5059 5.89657 22.6105 6.13267 22.7906 6.30423C25.0284 8.43517 26.1919 11.6836 26.1919 14.9995C26.1919 18.3155 25.0284 21.5649 22.7906 23.6958C22.7014 23.7807 22.6298 23.8824 22.5799 23.995C22.53 24.1077 22.5028 24.229 22.4998 24.3521C22.4968 24.4753 22.5181 24.5978 22.5624 24.7127C22.6068 24.8276 22.6733 24.9327 22.7583 25.0219C22.8432 25.1111 22.9449 25.1827 23.0575 25.2326C23.1701 25.2825 23.2915 25.3097 23.4146 25.3127C23.5378 25.3157 23.6603 25.2944 23.7752 25.2501C23.8901 25.2057 23.9952 25.1392 24.0844 25.0542C26.7684 22.4977 28.0659 18.7149 28.0659 14.9995C28.0659 11.2842 26.7694 7.50235 24.0844 4.94579Z" fill="black"/>
</svg>
